<?xml version='1.0' encoding='utf-8'?>
<!DOCTYPE svg PUBLIC '-//W3C//DTD SVG 1.1//EN' 'http://www.w3.org/Graphics/SVG/1.1/DTD/svg11.dtd'>
<svg version="1.1" xmlns="http://www.w3.org/2000/svg" viewBox="0 0 512 512" xmlns:xlink="http://www.w3.org/1999/xlink" enable-background="new 0 0 512 512">
  <g>
    <g>
      <path d="m392.3,221.9c-44.4,0-82.5,26.7-99.4,64.9-11.9-9.1-24.6-13.7-38.3-13.4-13.9,0.4-25.9,6.1-35.6,13.5-16.9-38.2-55-64.9-99.4-64.9-59.9-0.1-108.6,48.7-108.6,108.6 0,59.9 48.7,108.7 108.7,108.7 57.9,0 105.2-45.5 108.4-102.5 5.7-8.8 17.3-22.2 27.9-22.5 0.1,0 0.2,0 0.3,0 7.9,0 17.9,8.3 27.7,23 3.4,56.8 50.6,102.1 108.3,102.1 59.9,0 108.7-48.7 108.7-108.7 0-60-48.7-108.8-108.7-108.8z"/>
      <path d="m129.6,121.7c1.6-2.9 5.6-7.6 7.2-8.1 0.1,0 8,2 20.7,26.7 5.1,10 17.4,14 27.5,8.8 10-5.1 14-17.5 8.8-27.5-6.2-12.1-25.1-48.8-56.9-48.8-0.1,0-0.2,0-0.3,0-27.7,0.2-42.3,28.2-43.9,31.4-0.2,0.5-0.4,0.9-0.6,1.4l-36.1,90c15.3-7.2 31.9-12.1 49.5-13.7l24.1-60.2z"/>
      <path d="m328.3,154.1c10,5.2 22.3,1.2 27.5-8.8 12.5-24.4 20.5-26.6 20.4-26.7 1.8,0.5 5.6,4.7 7.6,8.2l22,55c17.5,1.6 34.1,6.2 49.4,13.3l-33.9-84.4c-0.2-0.5-0.4-1-0.6-1.4-1.6-3.2-16.2-31.2-43.9-31.4-0.1,0-0.2,0-0.3,0-31.8,0-50.7,36.7-56.9,48.8-5.2,10-1.3,22.3 8.7,27.4z"/>
    </g>
  </g>
</svg>
